<svg version="1.1" id="blackbishop" xmlns="http://www.w3.org/2000/svg" xmlns:xlink="http://www.w3.org/1999/xlink" x="0px"
	 y="0px" width="32px" height="32px" viewBox="0 0 32 32" enable-background="new 0 0 32 32" xml:space="preserve">
 	<style>.piecehighlight { fill: #666666; } .piecedarkness { fill: #666666; }</style>
<path class="piecehighlight" d="M29.646,0.996l-0.853,0.492c-3.705,2.148-7.28,4.994-10.625,8.457c-2.89,2.996-5.453,6.286-7.637,9.793
	c-1.411-3.254-2.773-4.782-4.319-4.806c-1.028,0-2.133,0.539-3.377,1.644l-1.618,1.438l2.15,0.246
	c0.48,0.055,0.97,0.444,1.455,1.157c0.611,0.899,1.379,2.538,2.287,4.867l0.431,1.11c0.468,1.222,0.626,1.811,0.676,2.09
	l0.299,1.689l1.29-1.132c0.496-0.435,1.104-0.88,1.811-1.325l1.131-0.724l0.113-0.298c1.451-3.805,3.819-7.743,7.038-11.708
	c3.225-3.97,6.754-7.284,10.496-9.849l0.729-0.5L29.646,0.996z"/>
</svg>
